<?xml version="1.0"?>
<svg xmlns="http://www.w3.org/2000/svg" xmlns:xlink="http://www.w3.org/1999/xlink" version="1.1" id="Capa_1" x="0px" y="0px" viewBox="0 0 61.01 61.01" style="enable-background:new 0 0 61.01 61.01;" xml:space="preserve" width="512px" height="512px"><g><g>
	<path d="M58.069,37.842c-2.023,0.154-3.751-1.377-5.769-0.948c0.217-0.584,0.42-1.176,0.592-1.782   c0.461-1.622,0.782-3.272,0.959-4.914c0.756,1.468,2.032,2.67,3.473,3.5c0.34,0.196,0.849-0.048,0.821-0.471   c-0.229-3.469,0.899-11.538-4.752-11.223c-0.509-2.116-1.337-4.104-2.533-5.861c2.081,0.738,4.457-0.384,5.658-2.292   c0.196-0.311,0.022-0.841-0.369-0.906c-3.132-0.522-7.463-4.284-10.446-1.551c-0.875-0.501-1.801-0.959-2.829-1.327   c-0.051-0.065-0.099-0.132-0.151-0.196c0.717-0.604,1.137-1.595,1.248-2.551c0.303-2.603-1.612-4.654-2.526-6.923   c-0.272-0.676-1.264-0.434-1.109,0.306c0.454,2.167-3.099,3.573-1.84,5.852c-2.038-0.975-4.723-0.901-6.997-0.637   c-0.016,0.002-0.031,0.01-0.047,0.014c0.057-0.164,0.115-0.329,0.17-0.492c0.171-0.505-0.419-0.833-0.829-0.637   c-2.296,1.097-5.029,0.462-7.276,1.604c0.377-2.524-1.214-4.858-3.443-5.948c-0.421-0.206-0.822-0.021-0.988,0.402   c-0.62,1.578-1.191,3.175-1.774,4.767c-0.446,1.218-1.139,2.577-1.045,3.907c0.094,1.32,0.989,2.676,2.251,3.014   c-2.101,1.395-3.797,3.055-5.123,4.891c-0.1-2.446-1.559-4.982-3.271-6.462c-0.372-0.321-0.836-0.164-1.014,0.268   c-0.83,2.016-1.22,4.923-0.413,7.109c-0.619-0.165-1.284,0.002-1.867,0.494c-0.604,0.509-0.915,1.298-1.272,1.976   c-0.671,1.275-1.507,2.156-2.77,2.872c-0.482,0.273-0.426,0.928,0,1.214c2.156,1.444,5.094,1.546,7.298,0.379   c-0.298,1.585-0.4,3.204-0.341,4.821c-1.725,0.196-3.055,1.272-3.7,2.978c-0.395,1.045-0.442,2.162-0.285,3.263   c0.206,1.44,1.191,3.078,0.258,4.45c-0.319,0.469,0.213,1.153,0.747,0.971c2.12-0.721,3.767-2.237,4.469-4.255   c1.208,3.24,3.105,6.233,5.596,8.643c-2.049-0.836-4.263-1.162-6.509-1.055c-0.504,0.024-0.737,0.6-0.403,0.972   c2.421,2.7,6.948,6.054,10.055,2.591c1.463,0.953,3.048,1.747,4.772,2.303c-1.427,1.134-2.084,4.623-4.329,4.283   c-0.821-0.124-1.238,0.822-0.559,1.325c2.718,2.012,7.099,1.72,9.281-0.938c0.34,1.542,0.9,3.156,0.375,4.341   c-0.25,0.564,0.158,1.126,0.778,1.013c3.006-0.55,5.162-3.172,5.306-5.944c0.066,0.046,0.128,0.097,0.195,0.141   c1.84,1.193,4.278,1.006,5.745,2.806c0.348,0.427,0.965,0.04,0.997-0.413c0.186-2.602-0.88-5.744-3.146-7.241   c1.62-0.655,3.148-1.496,4.561-2.499c1.829,3.027,6.542,0.846,9.312,1.375c0.42,0.08,0.922-0.278,0.753-0.753   c-0.763-2.14-3.245-4.612-5.743-4.629c0.744-0.889,1.423-1.839,2.034-2.838c0.711,0.768,1.888,1.191,2.893,1.204   c2.305,0.032,3.918-1.825,5.233-3.48C58.682,38.411,58.563,37.804,58.069,37.842z M56.981,32.105   c-1.425-1.18-2.213-2.683-2.976-4.438c0.015-1.154-0.054-2.293-0.198-3.409c0.634,1.236,0.974,2.503,1.228,3.917   c0.061,0.341,0.647,0.267,0.611-0.083c-0.174-1.683-0.956-3.302-1.962-4.648c-0.041-0.244-0.078-0.489-0.127-0.73   C57.501,23.301,56.881,28.688,56.981,32.105z M54.9,13.962c-1.156,1.196-2.948,1.204-4.5,0.541   c-0.244-0.104-0.518-0.028-0.714,0.126c-0.347-0.396-0.722-0.772-1.113-1.136c0.8-0.128,1.569-0.005,2.405,0.206   c0.326,0.083,0.552-0.394,0.236-0.559c-0.979-0.51-2.12-0.454-3.14-0.096c-0.465-0.397-0.954-0.775-1.481-1.123   C49.156,10.643,52.185,13.212,54.9,13.962z M49.322,21.495c0.168-0.567,0.383-1.111,0.669-1.63   c0.174-0.315,0.427-0.612,0.598-0.936c0.058,0.116,0.121,0.23,0.176,0.348c-0.607,2.361-1.602,5.318-4.19,5.465   c0.333-0.657,0.448-1.423,0.516-2.247c0.176-2.154,0.765-4.025,2.7-5.002c0.134,0.214,0.259,0.432,0.383,0.651   c-0.473,0.305-0.707,0.906-0.923,1.408c-0.247,0.573-0.426,1.161-0.55,1.772C48.62,21.727,49.203,21.896,49.322,21.495z    M43.392,13.652c0.144,1.486-0.502,2.561-1.276,3.75c-0.473,0.727-0.906,1.412-1.173,2.154c-1.047-2.011-1.244-4.085-1.318-6.52   c-0.002-0.064-0.017-0.119-0.036-0.172c0.556-0.322,1.063-0.763,1.506-1.255c-0.474,1.331-0.521,2.917-0.33,4.227   c0.055,0.376,0.593,0.245,0.622-0.084c0.076-0.883,0.145-1.755,0.344-2.622c0.147-0.64,0.375-1.257,0.537-1.891   c0.129,0.059,0.262,0.115,0.393,0.173C43.024,12.125,43.316,12.868,43.392,13.652z M41.061,2.68   c0.052-0.084,0.083-0.162,0.126-0.243c1.301,2.443,2.801,5.105-0.014,7.055c-0.057-0.154-0.132-0.285-0.199-0.427   c0.117,0.017,0.241-0.028,0.317-0.152c0.336-0.551,0.293-1.224,0.329-1.854c0.045-0.768,0.09-1.536,0.135-2.303   c0.022-0.373-0.607-0.469-0.663-0.09c-0.111,0.759-0.222,1.517-0.334,2.276c-0.07,0.475-0.194,0.972-0.154,1.451   c-0.427-0.651-0.957-1.168-1.579-1.548c0.098-0.075,0.158-0.204,0.087-0.355C38.387,4.944,40.395,3.752,41.061,2.68z M39.522,9.168   c-0.289-0.042-0.576-0.095-0.86-0.198c-0.811-0.293-1.483-0.802-2.035-1.458c-0.244-0.291-0.75,0.094-0.53,0.409   c0.851,1.219,2.421,2.373,3.995,2.378c0.101,0.179,0.249,0.295,0.422,0.332c-0.945,0.859-2.038,1.701-3.275,1.37   c-1.149-0.307-1.743-1.439-2.285-2.398c-0.499-0.883-0.969-1.771-1.622-2.489C35.688,6.963,38.229,7.191,39.522,9.168z    M27.029,6.949c1.074-0.104,2.094-0.181,3.055-0.518c-0.52,1.413-1.168,2.824-2.228,3.875c-1.879,1.863-4.161,1.414-6.387,0.7   c0.028-0.102,0.071-0.186,0.103-0.283c1.833,0.048,3.962-0.702,4.858-2.398c0.176-0.334-0.228-0.621-0.505-0.39   c-1.268,1.061-2.446,1.905-4.082,2.067C22.79,7.994,24.641,7.18,27.029,6.949z M23.51,13.363c-0.34-0.261-0.698-0.483-1.065-0.688   c1.064,0.282,2.135,0.396,3.172,0.204c0.856,0.871,1.487,1.57,1.514,2.952c0.021,1.102-0.368,2.167-0.821,3.175   c-0.693-0.848-1.485-1.604-2.408-2.217c-1.04-0.691-5.216-1.952-4.248-3.812c0.242-0.211,0.487-0.419,0.735-0.624   c1.036,0.404,1.996,0.98,2.811,1.741c0.726,0.677,1.178,1.607,1.901,2.256c0.251,0.225,0.625,0.005,0.555-0.323   C25.429,14.962,24.337,13.997,23.51,13.363z M17.656,8.784c0.084-0.668,0.454-1.379,0.683-1.997   c0.591-1.597,1.194-3.189,1.765-4.793c1.598,0.982,2.233,2.48,2.446,4.461c0.018,0.165,0.12,0.294,0.249,0.378   c-0.82,0.597-1.393,1.402-1.756,2.308c0.004-0.113,0.007-0.229,0.012-0.339c0.05-1.019,0.035-2.03-0.016-3.047   c-0.015-0.299-0.482-0.398-0.549-0.074c-0.199,0.964-0.362,1.925-0.469,2.904c-0.089,0.813-0.238,1.678-0.14,2.499   c-0.085,0.198-0.09,0.429,0.041,0.594c-0.217,0.122-0.411,0.259-0.62,0.385C18.289,11.142,17.443,10.491,17.656,8.784z    M14.968,18.261c0.133-0.196,0.264-0.392,0.402-0.585c2.158,2.324,2.837,5.711,1.12,8.366c-0.919-2.434-3.445-5.446-1.439-7.231   C15.245,18.639,15.15,18.373,14.968,18.261z M9.982,12.533c1.702,1.847,1.976,3.865,2.023,6.257c-0.399-0.974-0.68-1.9-0.694-3.038   c-0.004-0.28-0.459-0.366-0.508-0.069c-0.241,1.47,0.015,3.156,1.003,4.315c0.011,0.013,0.023,0.018,0.035,0.028   c-0.009,0.018-0.019,0.035-0.028,0.053C9.488,18.165,9.192,15.392,9.982,12.533z M10.587,35.618   c-0.417,1.84-1.338,3.34-2.853,4.265c0.055-0.659-0.066-1.341-0.247-2.067c-0.668-2.689-0.571-5.909,2.289-7.017   c0.031,0.458,0.079,0.915,0.138,1.371c-0.997,1.067-1.332,2.923-1.341,4.256c-0.002,0.385,0.533,0.358,0.58,0   c0.111-0.834,0.358-1.63,0.74-2.381c0.076-0.149,0.163-0.291,0.255-0.432c0.127,0.659,0.275,1.315,0.456,1.964   C10.601,35.592,10.591,35.602,10.587,35.618z M4.503,24.235c0.522-0.397,0.998-0.844,1.411-1.39   c0.674-0.889,1.617-4.213,3.291-3.454c0.001,0,0.002,0,0.003,0.001c0.288,0.443,0.658,0.822,1.1,1.136   c-0.476,0.305-0.893,0.735-1.354,1.061c-0.536,0.379-1.117,0.673-1.703,0.965c-0.34,0.17-0.098,0.684,0.252,0.598   c1.207-0.299,2.909-1.066,3.525-2.218c0.109,0.049,0.21,0.105,0.327,0.146c-0.25,0.582-0.46,1.177-0.652,1.778   C9.043,24.568,6.846,25.27,4.503,24.235z M11.634,34.828c-0.001-0.005-0.003-0.01-0.004-0.014   c-0.264-1.076-0.421-2.146-0.492-3.206c0.387,1.275,1.23,2.709,2.507,3.132c0.37,0.122,0.592-0.36,0.359-0.617   c-0.42-0.465-0.955-0.808-1.367-1.287c-0.456-0.532-0.803-1.148-1.037-1.808c-0.085-0.241-0.35-0.256-0.493-0.129   c-0.003-0.101-0.011-0.203-0.013-0.304c0.049,0.014,0.096,0.033,0.154,0.016c2.717-0.833,3.054,3.531,4.23,5.384   c-0.522,0.229-1.08,0.268-1.668,0.081c-0.751-0.239-1.048-0.745-1.6-1.234C12.013,34.666,11.784,34.694,11.634,34.828z    M11.663,46.192c2.257,0.005,4.366,0.553,6.429,1.536c-0.415,0.022-0.827,0.122-1.249,0.1c-0.619-0.032-1.195-0.212-1.739-0.507   c-0.266-0.144-0.477,0.232-0.234,0.401c0.929,0.646,2.6,1.257,3.659,0.582c0.123-0.078,0.156-0.202,0.136-0.315   c0.108,0.034,0.21,0.03,0.295-0.013c0.075,0.055,0.143,0.118,0.218,0.172C16.785,50.279,13.748,48.144,11.663,46.192z    M18.464,40.679c-0.284,1.462-0.45,3.812,0.65,4.994c-0.082,0.069-0.147,0.143-0.236,0.21c-0.154-0.122-0.303-0.25-0.455-0.377   c-0.002-0.003,0-0.006-0.002-0.009c-1.821-2.594-1.01-5.518-0.405-8.394c0.514,0.894,1.153,1.697,1.729,2.587   c1.234,1.903,1.307,3.903-0.072,5.458c-0.111-0.611-0.391-1.187-0.522-1.801c-0.183-0.859-0.195-1.718-0.097-2.587   C19.092,40.424,18.529,40.347,18.464,40.679z M28.924,54.068c-0.029,0.022-0.06,0.036-0.087,0.067   c-1.694,1.94-4.18,2.864-6.496,2.117c0.373-0.218,0.72-0.51,1.038-0.881c0.881-1.028,1.471-3.186,2.724-4.01   c0.743,0.183,1.515,0.311,2.299,0.411c-0.454,0.96-1.139,1.713-2.124,2.165c-0.295,0.136-0.086,0.611,0.219,0.521   c1.217-0.362,2.282-1.196,2.85-2.344c0.041-0.082,0.053-0.161,0.052-0.237c0.146,0.012,0.286,0.037,0.433,0.045   C29.124,52.486,28.911,53.236,28.924,54.068z M29.484,47.222c0.455,0.986,0.849,2.162,1.484,3.074   c-0.41-0.011-0.822-0.035-1.235-0.068c-1.09-0.942-1.387-2.784-1.583-4.118c-0.114-0.775-0.262-1.53-0.535-2.221   c2.369,1.298,3.606,3.579,4.565,6.291c0.015,0.041,0.038,0.073,0.059,0.106c-0.175,0.008-0.351,0.002-0.527,0.005   c-0.327-1.163-1.209-2.275-1.818-3.308C29.736,46.715,29.358,46.95,29.484,47.222z M31.055,59.336c0.081-0.72,0-1.437-0.229-2.225   c-0.423-1.452-1.677-3.872,0.13-4.918c0.096-0.055,0.151-0.14,0.174-0.234c0.108,0,0.213,0.007,0.322,0.005   c0.099-0.002,0.196-0.016,0.295-0.019c-0.191,0.515-0.186,1.09-0.208,1.642c-0.033,0.837,0.011,1.668,0.077,2.502   c0.025,0.31,0.468,0.315,0.485,0c0.042-0.78,0.113-1.558,0.19-2.336c0.06-0.611,0.211-1.244,0.107-1.85   c0.357-0.022,0.717-0.03,1.069-0.067C34.886,54.81,34.067,58.149,31.055,59.336z M34.872,46.299c-0.23,0.51-0.46,1.021-0.69,1.531   c-0.037,0.083-0.079,0.166-0.119,0.25c-0.008-0.343-0.49-0.382-0.596-0.069c-0.136,0.398-0.289,0.818-0.405,1.244   c-0.067-0.739-0.27-1.453-0.58-2.128c0.012-2.103,2.396-2.925,4.085-4.098c-0.017,2.594-0.298,5.763-2.619,6.971   c0.014-0.07,0.023-0.141,0.033-0.212c0.125,0.007,0.257-0.047,0.353-0.192c0.287-0.432,0.395-0.978,0.552-1.469   c0.172-0.535,0.344-1.07,0.516-1.605C35.501,46.216,35.008,45.997,34.872,46.299z M41.326,56.135   c-0.613-0.425-1.325-0.701-2.097-0.917c-1.06-0.297-2.635-0.593-3.683-1.31c-0.12-0.77-0.402-1.53-0.882-2.242   c0.124-0.02,0.244-0.053,0.368-0.076c0.468,0.184,0.925,0.391,1.351,0.668c0.641,0.417,1.139,0.959,1.723,1.442   c0.321,0.266,0.889-0.077,0.621-0.479c-0.565-0.847-1.48-1.476-2.471-1.884c0.625-0.152,1.242-0.324,1.847-0.526   C39.761,52.346,41.057,53.954,41.326,56.135z M44.089,43.436c-0.059-0.879-0.015-1.77,0.109-2.642   c0.043-0.303-0.366-0.433-0.468-0.129c-0.537,1.598-0.864,3.599-0.227,5.218c-2.611-1.375-0.508-5.084,0.073-7.739   c1.415,1.828,1.903,4.179,1.363,6.485c-0.031,0.135-0.006,0.249,0.041,0.348c-0.201,0.179-0.415,0.341-0.624,0.512   C44.298,44.802,44.136,44.128,44.089,43.436z M49.905,45.558c1.103,0.493,1.96,1.282,2.518,2.301   c-2.584-0.083-6.096,1.403-7.815-0.506c0.255-0.195,0.496-0.408,0.743-0.614c1.354,0.104,2.861,0.311,4.127,0.012   c0.327-0.077,0.327-0.584,0-0.661c-1.017-0.24-2.188-0.154-3.31-0.056c0.35-0.321,0.696-0.645,1.026-0.988   C48.113,45.142,49.008,45.157,49.905,45.558z M46.162,43.843c0.331-2.77-0.622-5.385-2.622-7.432   c-0.335-0.343-0.987-0.093-0.968,0.401c0.082,2.185-3.656,9.041,0.465,9.704c-2.035,1.426-4.313,2.496-6.729,3.124   c1.515-2.151,1.283-5.565,1.54-8.048c0.055-0.529-0.763-0.886-1.098-0.455c-1.305,1.678-4.372,2.623-4.995,4.731   c-1.379-1.968-3.626-3.457-5.764-4.025c-0.591-0.157-1.153,0.654-0.633,1.088c1.415,1.183,1.492,5.031,2.71,7.095   c-3.15-0.533-6.116-1.862-8.668-3.754c1.646-0.769,2.68-2.424,2.538-4.312c-0.191-2.544-2.55-4.293-3.732-6.377   c-0.214-0.378-0.756-0.188-0.78,0.211c-0.139,2.319-1.575,5.325-1.063,7.744c-1.877-2.052-3.346-4.47-4.251-7.113   c1.081,0.964,3.22,0.887,4.278,0.104c0.192-0.142,0.305-0.396,0.163-0.622c-1.128-1.794-2.029-7.572-5.47-5.887   c0.034-2.532,0.569-4.991,1.503-7.309c0.096-0.202,0.181-0.412,0.256-0.631c0.13-0.296,0.271-0.588,0.414-0.879   c0.355,2.077,2.299,4.458,2.319,6.216c0.006,0.52,0.675,0.827,1.049,0.434c2.841-2.987,2.864-8.473-0.679-10.948   c0.802-1.036,1.682-2.019,2.631-2.937c0.052,0.604,0.324,1.219,0.765,1.684c0.816,0.861,1.994,1.188,3.003,1.755   c1.421,0.798,2.584,1.891,3.524,3.214c0.257,0.363,0.926,0.498,1.15,0c0.778-1.731,1.622-3.603,1.28-5.547   c-0.163-0.928-0.627-1.995-1.393-2.616c0.361-0.174,0.717-0.379,1.062-0.656c1.475-1.186,2.371-2.925,3.056-4.693   c0.04,0.031,0.075,0.064,0.129,0.089c2.48,1.129,2.545,4.578,4.952,5.84c0.82,0.43,1.643,0.477,2.417,0.273   c-0.792,3.008,0.489,6.227,2.355,8.576c0.344,0.433,1.18,0.083,1.124-0.465c-0.248-2.428,2.184-4.008,2.601-6.3   c0.192-1.053-0.015-2.034-0.421-2.949c2.143,1.208,3.83,2.753,5.105,4.535c-1.242,0.406-2.285,1.221-2.934,2.422   c-0.817,1.513-0.117,4.599-1.581,5.561c-0.494,0.325-0.461,1.167,0.172,1.318c3.274,0.781,5.749-1.572,6.669-4.449   c0.968,3.276,1.018,6.924,0.321,10.57c-0.69-1.625-2.146-3.109-3.391-3.87c-0.308-0.188-0.694-0.003-0.796,0.324   c-0.724,2.326-1.262,4.965,0.096,7.176c0.378,0.616,1.619,1.901,2.499,1.762C49.338,39.895,47.907,42.029,46.162,43.843z    M51.074,35.487c-0.186-0.325-0.415-0.634-0.573-0.971c-0.304-0.65-0.479-1.383-0.545-2.096c-0.029-0.306-0.444-0.304-0.475,0   c-0.122,1.199,0.154,3.231,1.327,3.911c-0.02,0.056-0.043,0.109-0.063,0.165c-0.032,0.007-0.062,0.001-0.096,0.023   c-1.044,0.669-2.236-2.263-2.366-2.885c-0.283-1.356-0.039-2.715,0.309-4.032c0.827,0.602,1.496,1.352,1.969,2.298   c0.467,0.935,0.502,1.891,0.748,2.842C51.237,34.99,51.151,35.238,51.074,35.487z M51.037,39.728   c0.105-0.198,0.191-0.409,0.29-0.612c0.999,0.411,2.094,0.587,3.153,0.303c0.389-0.104,0.313-0.709-0.095-0.704   c-0.953,0.011-1.849-0.025-2.728-0.294c0.066-0.148,0.144-0.289,0.208-0.439c0.941-0.21,2.188,0.099,2.887,0.322   c0.752,0.24,1.462,0.458,2.206,0.546C55.22,40.646,52.776,41.855,51.037,39.728z" data-original="#1D1D1B" class="active-path" data-old_color="#1D1D1B" fill="#C8A79E"/>
	<path d="M16.051,18.662c-0.079-0.326-0.582-0.327-0.661,0c-0.279,1.154-0.011,2.585,0.093,3.758   c0.027,0.305,0.447,0.305,0.475,0C16.062,21.246,16.33,19.815,16.051,18.662z" data-original="#1D1D1B" class="active-path" data-old_color="#1D1D1B" fill="#C8A79E"/>
</g></g> </svg>
